<?xml version="1.0" encoding="utf-8"?>
<!-- Uploaded to: SVG Repo, www.svgrepo.com, Generator: SVG Repo Mixer Tools -->
<svg width="800px" height="800px" viewBox="-59.85 0 311.235 311.235" xmlns="http://www.w3.org/2000/svg"><defs><style>.a{fill:#3d8dcc;}.b{fill:#ffffff;}.c{fill:#bd957a;}.d{fill:#211715;}.e{fill:#85807f;}</style></defs><path class="a" d="M57.818,272.45c.111,4.566.191,7.739.261,8.731,10.151.348,27.4.695,37.545,1.043,22.049.756,61.067,1.347,80.533.713-.418-10.253-1.329-23.138-2.052-35.107l-3.1-44.37c6.414-.183,12.833-.621,18.088-1.28-.242-14.487-1.717-35.313-3.974-47.645a41.58,41.58,0,0,0-7.723-16.889,55.63,55.63,0,0,0-14.364-12.534c-11.3-6.134-17.971-9.807-31.182-15.021l-6.109-4.634c-.638-.877-1.243-1.749-1.741-2.522-8.313,6.456-20.689,14.111-30.552,17.637l-4.084-.155c-.011.021-11.218-7.232-12.166-7.853-1.219-.8-1.254-.427-2.194.6q-1.164,1.272-2.365,2.507c-1.326,1.363-3.021,2.843-4.42,4.512-11.727,5-26.878,12.794-32.665,21.752a44.155,44.155,0,0,0-3.963,7.459,99.881,99.881,0,0,0-5.25,16.917Z"/><path class="b" d="M10.582,278.04a9.465,9.465,0,0,1-2.624-2.61c-.71-1.07-1.72-3.68-1.18-5.2,0,0,.037-.294.09-.731a5.153,5.153,0,0,1-2.78-.919,5.705,5.705,0,0,1-1.48-2.21c-.3-.86-.09-4.71-.02-5.62.53-7.19,3.2-9.69,7.87-14.16h24.1v25.79c1.62,3.78-.54,7.35-2.63,8.16-2.95,1.14-7.34.94-12.22.36C15.783,280.438,12.761,279.516,10.582,278.04Z"/><path class="b" d="M130.127,63.086a6.214,6.214,0,0,1,4.5-.935,5.614,5.614,0,0,1,4.623,3.27c1.321,3.008.582,8.128-.968,11.16a16.274,16.274,0,0,1-6.238,7.168,12,12,0,0,1-5.609,1.3l-.147.3c-.738,1.565-2.489,4.307-2.489,4.307-.628.944-1.273,1.869-1.948,2.781.091,1.467.173,2.765.173,2.765a34.5,34.5,0,0,0,.838,8.605c-8.276,6.26-19.992,13.4-29.415,16.766l-4.084-.155c-.011.021-11.218-7.232-12.166-7.853,0,0,0-1.864,0-3.868A33.034,33.034,0,0,1,65.029,102c-6.8-5.7-9.678-14.59-10.637-24.395-.553-5.655-1.019-11.8-1.755-17.942,0,0-5.356-31.186,40.149-31.186C134.842,28.48,130.127,63.086,130.127,63.086Z"/><path class="c" d="M11.705,167.19H10.573c0,3.765,0,99.895,0,105.154,28.338,0,124.173.327,139.768.327h3.043V271.48c0-18.616.085-86.184.085-104.29Z"/><path class="b" d="M149.248,247.37a6.614,6.614,0,0,0-2.89-1.053l.317-.837c1.807-4.778,4.928-15.234,6.709-21.1,0-6.9.012-14,.026-21.128a219.331,219.331,0,0,0,33.072-.772,60.757,60.757,0,0,1-2.011,19.8c-2.219,6.853-13.8,30.7-19.362,36.293l-2.184,2.195-.222-.284c-1.671-2.14-4.675-5.457-6.571-7.4A35.206,35.206,0,0,0,149.248,247.37Z"/><path class="d" d="M8.761,244.893A34.078,34.078,0,0,0,2.7,251.77a20.356,20.356,0,0,0-2.515,9.1c-.175,2.464-.518,5.263.722,7.5,2.147,3.873,7.294,4.45,10.888,2.265,2.636-1.6.226-5.755-2.423-4.145a3.853,3.853,0,0,1-3.414.408,1.78,1.78,0,0,1-.906-.95c-.522-.955.048.11-.157-.326-.156-.333-.01.487,0-.035a48.97,48.97,0,0,1,.245-6.281A13.089,13.089,0,0,1,7.4,253.32a38.792,38.792,0,0,1,4.754-5.033c2.236-2.14-1.162-5.532-3.4-3.394Z"/><path class="d" d="M32.244,273.018a4.594,4.594,0,0,1-.059,4.118,2.668,2.668,0,0,1-2.106,1.466c-3.241.8-6.869.308-10.135-.075a18.2,18.2,0,0,1-8.088-2.518c-1.369-.923-3.312-3.216-2.763-5.141.849-2.976-3.782-4.247-4.629-1.276-.827,2.9.583,6.221,2.461,8.413a14.882,14.882,0,0,0,7.055,4.2,43.451,43.451,0,0,0,10.908,1.535c2.89.108,6.569.121,9.059-1.578a8.856,8.856,0,0,0,2.926-10.419,2.473,2.473,0,0,0-2.953-1.677,2.418,2.418,0,0,0-1.676,2.953Z"/><path class="d" d="M119.626,95.2a47.234,47.234,0,0,0,.267,5.641c.279,2.308.659,4.932,2.1,6.842a2.63,2.63,0,0,0,1.434,1.1,2.458,2.458,0,0,0,1.85-.242c.986-.637,1.67-2.213.861-3.284a6.81,6.81,0,0,1-.672-1.137c-.191-.388.2.538.04.092-.037-.1-.078-.209-.115-.315-.084-.24-.159-.483-.227-.728-.137-.491-.246-.989-.338-1.49-.049-.269-.09-.54-.133-.81-.069-.439.045.425.016.118-.014-.149-.036-.3-.053-.446a48.9,48.9,0,0,1-.233-5.344,2.4,2.4,0,0,0-4.8,0Z"/><path class="d" d="M115.756,102.522a54.062,54.062,0,0,0,8.3-9.054,44.182,44.182,0,0,0,4.3-6.909,2.4,2.4,0,0,0-4.145-2.422,43.66,43.66,0,0,1-4.154,6.7c-.589.809-.833,1.128-1.415,1.845q-.906,1.116-1.876,2.18a50.294,50.294,0,0,1-4.411,4.263,2.422,2.422,0,0,0,0,3.394,2.448,2.448,0,0,0,3.395,0Z"/><path class="e" d="M58.89,21.5a47.086,47.086,0,0,0-6.615,16.8,71.763,71.763,0,0,0,.387,23.978c.136-.8.226-1.35.226-1.35.666-4.042,8.3-15.225,13.839-18.43.65-.376,1.523.061,1.838,1.16a7.325,7.325,0,0,1,.284,2.65,1.384,1.384,0,0,0,2.033,1.405c3.094-1.889,8.414-6.369,14.6-9.144A59.363,59.363,0,0,1,98.563,37.8c2.483.96,13.936,4.8,22.547,19.808.822,1.41,1.545,2.895,2.367,4.305a8.745,8.745,0,0,0,.831,1.255.914.914,0,0,0,.589.308,12.836,12.836,0,0,0,5.23-.385,6.214,6.214,0,0,1,4.5-.935,5.614,5.614,0,0,1,4.623,3.27,7.514,7.514,0,0,1,.48,1.582c3.033-5.422,3.354-15.22,3.634-19.421a38.5,38.5,0,0,0-1.077-11.824c-1.915-7.679-4.834-13.969-10.8-19.473l-1.182-1.091-6.2-4.394A42.83,42.83,0,0,0,95.647,2.488c-14.639.737-26.409,6.4-34.3,15.694A33.185,33.185,0,0,0,58.89,21.5Z"/><path class="d" d="M129.793,17.982c5.22,4.87,8.262,10.981,10.034,17.832,1.729,6.686,1.317,13.733.419,20.53-.434,3.288-1.064,6.8-2.736,9.706-1.543,2.682,2.6,5.1,4.144,2.423,3.3-5.739,3.629-12.968,4.021-19.422a47.614,47.614,0,0,0-4.605-23.9,36.14,36.14,0,0,0-7.883-10.564c-2.256-2.106-5.658,1.281-3.394,3.394Z"/><path class="d" d="M97.925,40.109c.452.174.906.342,1.356.522.152.061.3.126.457.186.408.159-.518-.237-.073-.031.372.172.75.33,1.121.5a38.251,38.251,0,0,1,5.44,3.141,44.927,44.927,0,0,1,12.812,14.383c1.546,2.673,5.7.258,4.144-2.423-4.8-8.3-11.782-15.587-20.623-19.544-1.105-.494-2.229-.933-3.358-1.368a2.418,2.418,0,0,0-2.952,1.677,2.455,2.455,0,0,0,1.676,2.952Z"/><path class="d" d="M55.2,61.563a9.524,9.524,0,0,1,.386-1.373c.046-.133.1-.265.153-.4-.152.38-.005.01.025-.057.154-.343.316-.681.485-1.017A41.083,41.083,0,0,1,58.736,54.5a43.205,43.205,0,0,1,6.712-8.047A18.684,18.684,0,0,1,66.9,45.239a5.357,5.357,0,0,0,.832-.551c.411-.447-.192-1.48-1.339-.209l-.145-.186a6.549,6.549,0,0,1,.156.647,17.773,17.773,0,0,0,.217,2.656,3.915,3.915,0,0,0,2.75,2.6c1.849.455,3.379-.808,4.791-1.8,1.511-1.057,3-2.14,4.532-3.172,3.936-2.659,8.093-5.067,12.754-6.169,3.005-.71,1.733-5.34-1.276-4.628a40.6,40.6,0,0,0-12.52,5.738c-1.683,1.089-3.317,2.25-4.953,3.409-.612.434-1.225.869-1.846,1.289-.263.178-.565.335-.81.535-.052.043-.329.159-.375.235q1.272-.395,1.578.667l.016-.335c.332-2.21-.864-5.329-3.2-5.9-2.029-.495-3.81,1.113-5.244,2.321A44.158,44.158,0,0,0,55.328,51c-1.9,2.714-4.15,5.965-4.754,9.289A2.467,2.467,0,0,0,52.25,63.24,2.421,2.421,0,0,0,55.2,61.563Z"/><path class="d" d="M78.091,93.406a13.862,13.862,0,0,0,6.634,1.448,13.6,13.6,0,0,0,3.337-.438,25.1,25.1,0,0,0,3.566-1.545,2.409,2.409,0,0,0,.861-3.284,2.47,2.47,0,0,0-3.283-.861c-.482.216-.951.456-1.426.686-.114.055-.23.108-.345.163-.537.257.3-.094-.011.006-.19.061-.375.131-.566.186s-.392.1-.59.144c-.1.021-.2.04-.306.058-.076.014-.448.066-.075.018s-.008,0-.083.005c-.11.011-.219.021-.328.029q-.375.027-.751.033c-.451.007-.9-.009-1.353-.046-.113-.009-.225-.021-.337-.031-.324-.029,0-.013.137.023-.209-.056-.44-.068-.654-.11a11.136,11.136,0,0,1-1.31-.337c-.1-.031-.192-.064-.287-.1-.075-.027-.4-.165-.057-.013s.028.012-.042-.023c-.1-.053-.206-.1-.308-.156a2.4,2.4,0,1,0-2.423,4.144Z"/><path class="d" d="M92.01,69.9c-.517-2,.092-6.535,3.856-6.747,4.949.261,4.956,5.772,3.169,8.279C97.571,73.486,93.518,74.179,92.01,69.9Z"/><path class="d" d="M62.575,69.452c-.47-2.011.094-6.556,3.541-6.774,4.532.255,4.53,5.784,2.891,8.3C67.664,73.041,63.951,73.742,62.575,69.452Z"/><path class="d" d="M77.413,74.053c-.65,1.063-1.276,2.146-1.829,3.262a5.294,5.294,0,0,0-.637,2.036,3.063,3.063,0,0,0,.971,2.4,4.576,4.576,0,0,0,1.832,1.088,7.585,7.585,0,0,0,1.362.2l-.638-.086.1.014a2.611,2.611,0,0,0,1.849-.242,2.4,2.4,0,0,0,.861-3.283,2.323,2.323,0,0,0-1.434-1.1c-.368-.059-.737-.094-1.106-.14l.638.086a2.224,2.224,0,0,1-.543-.145l.573.242a2.278,2.278,0,0,1-.4-.245l.486.375a2.528,2.528,0,0,1-.335-.319l.375.485a.55.55,0,0,1-.069-.12l.242.573a.914.914,0,0,1-.049-.2l.086.638a1.418,1.418,0,0,1,.006-.216l-.086.638a2.186,2.186,0,0,1,.129-.448l-.242.574a29.033,29.033,0,0,1,2.009-3.639,2.4,2.4,0,1,0-4.144-2.423Z"/><path class="d" d="M125.317,8.727A46.48,46.48,0,0,0,101.835.137,56.056,56.056,0,0,0,79.059,3.276,46.163,46.163,0,0,0,61.044,14.927a45.167,45.167,0,0,0-10.779,21.2,67.792,67.792,0,0,0,.2,27.392A2.4,2.4,0,0,0,55.1,62.247c-2.828-14-1.7-30.826,7.826-42.221,8.85-10.583,22.546-15.364,36.1-15.2a41.989,41.989,0,0,1,23.875,8.051,2.421,2.421,0,0,0,3.284-.861,2.451,2.451,0,0,0-.861-3.284Z"/><path class="d" d="M103.881,103.289c-9.6,4.263-20.906,6.2-30.658,1.3a27.661,27.661,0,0,1-11.312-9.849A37.626,37.626,0,0,1,57.16,80.6c-1.069-6.918-1.3-13.98-2.123-20.933a2.473,2.473,0,0,0-2.4-2.4,2.415,2.415,0,0,0-2.4,2.4c.8,6.776,1.147,13.609,2.036,20.373A44.164,44.164,0,0,0,57.3,96.378C63.05,106.4,74.708,112.32,86.1,112.3c7.079-.016,13.789-2.01,20.209-4.861a2.418,2.418,0,0,0,.861-3.284,2.461,2.461,0,0,0-3.284-.861Z"/><path class="d" d="M131.338,65.158a4.256,4.256,0,0,1,4.031-.346,4.414,4.414,0,0,1,.745.4q.372.255.116.081c.115.1.226.207.331.318.186.217.195.216.03,0,.075.1.146.207.214.314.086.147.17.293.25.443q.141.3-.014-.059c.066.171.126.346.178.522a7.454,7.454,0,0,1,.256,1.135,13,13,0,0,1,.051,1.876,15.25,15.25,0,0,1-.923,4.624,14.843,14.843,0,0,1-4.657,6.482,10.068,10.068,0,0,1-1.111.729c-.081.046-.77.372-.318.182a11.244,11.244,0,0,1-1.935.587,6.288,6.288,0,0,1-3.888-.148,2.466,2.466,0,0,0-3.283.861,2.422,2.422,0,0,0,.861,3.284A12.158,12.158,0,0,0,132,86.4a16.062,16.062,0,0,0,7.3-6.694,20.539,20.539,0,0,0,2.971-9.044c.248-2.9-.194-6.035-2.173-8.282a9.028,9.028,0,0,0-11.187-1.367c-2.583,1.674-.18,5.832,2.423,4.145Z"/><path class="d" d="M60.478,281.18c-.2-2.9-.189-5.825-.26-8.73a2.4,2.4,0,0,0-4.8,0c.071,2.905.062,5.829.26,8.73a2.4,2.4,0,1,0,4.8,0Z"/><path class="d" d="M155.785,223.937c0-18.915.084-37.831.085-56.747a2.435,2.435,0,0,0-2.4-2.4H28.831c-5.922,0-11.854-.1-17.776,0-.16,0-.321,0-.482,0a2.435,2.435,0,0,0-2.4,2.4v64.868q0,12.828,0,25.655,0,7.044,0,14.09v.541a2.435,2.435,0,0,0,2.4,2.4q22.983,0,45.967.111,24.536.084,49.071.176,8.466.027,16.931.04c3.089,0,3.094-4.8,0-4.8-12.287,0-24.575-.066-36.862-.111q-25.807-.095-51.615-.176-11.747-.031-23.492-.04l2.4,2.4q0-6.041,0-12.082,0-12.328,0-24.659V181.054c0-4.459.206-8.974,0-13.429-.006-.144,0-.29,0-.435l-2.4,2.4h142.9l-2.4-2.4c0,18.916-.084,37.832-.085,56.747,0,3.089,4.8,3.094,4.8,0Z"/><path class="d" d="M122.321,187.957v61.315c0,3.089,4.8,3.094,4.8,0V187.957c0-3.089-4.8-3.094-4.8,0Z"/><path class="d" d="M67.009,118.112c-8.364,3.576-16.718,7.628-24.03,13.092A40.23,40.23,0,0,0,34,139.968a50.831,50.831,0,0,0-5.982,12.051,79.885,79.885,0,0,0-3.986,13.656,2.469,2.469,0,0,0,1.676,2.952,2.42,2.42,0,0,0,2.952-1.676,75.376,75.376,0,0,1,3.21-11.467,55.128,55.128,0,0,1,5.524-11.968c4.294-6.716,11.857-11.171,18.7-14.879,4.336-2.35,8.809-4.442,13.343-6.38a2.415,2.415,0,0,0,.861-3.284,2.465,2.465,0,0,0-3.284-.861Z"/><path class="d" d="M191.52,207.6c.063-9.006-.379-18.025-1.027-27.005a223.738,223.738,0,0,0-3.139-27.118c-1.958-9.925-8-18.572-15.609-25.021a59.313,59.313,0,0,0-5.522-4.21c-1.92-1.273-4-2.3-6.022-3.4-4.113-2.225-8.243-4.423-12.456-6.456q-3.707-1.788-7.49-3.413-2.149-.927-4.317-1.815-1.167-.479-2.339-.946c-.1-.038-.958-.454-.545-.2-.041-.025-.077-.062-.117-.089-2.07-1.383-4-3.034-5.984-4.539a2.415,2.415,0,0,0-3.284.861,2.46,2.46,0,0,0,.861,3.284l5.461,4.142a20.014,20.014,0,0,0,4.671,2.121q3.51,1.439,6.962,3.009c4.095,1.866,8.112,3.9,12.086,6.007,4.012,2.13,8.19,4.119,11.856,6.821,7.526,5.546,13.581,12.75,16.333,21.815a73.475,73.475,0,0,1,2.2,12.37c.567,4.615,1.008,9.245,1.375,13.88.787,9.939,1.316,19.931,1.246,29.9-.022,3.089,4.778,3.093,4.8,0Z"/><path class="d" d="M171.705,247.83c.708,11.7,1.569,23.394,2.052,35.107.126,3.078,4.927,3.094,4.8,0-.483-11.713-1.344-23.407-2.052-35.107-.185-3.07-4.987-3.091-4.8,0Z"/><path class="d" d="M176.157,280.537c-14.935.48-29.9.3-44.836.1-15.247-.208-30.482-.7-45.724-1.106-9.174-.245-18.349-.435-27.521-.747-3.09-.106-3.086,4.695,0,4.8,15.359.522,30.728.883,46.091,1.3q24.364.669,48.745.719c7.748.01,15.5-.018,23.245-.267,3.081-.1,3.094-4.9,0-4.8Z"/><path class="d" d="M55.676,281.181c-.765,7.389-1.595,14.79-3.052,22.08a2.461,2.461,0,0,0,1.676,2.952,2.422,2.422,0,0,0,2.952-1.676c1.541-7.708,2.415-15.544,3.224-23.356a2.415,2.415,0,0,0-2.4-2.4,2.454,2.454,0,0,0-2.4,2.4Z"/><path class="d" d="M169,284.092a91.954,91.954,0,0,1,.846,13.266c.05,3.821.048,7.662-.2,11.477a2.4,2.4,0,0,0,4.8,0c.257-3.931.254-7.89.2-11.827a95.159,95.159,0,0,0-1.013-14.192,2.419,2.419,0,0,0-2.952-1.676A2.455,2.455,0,0,0,169,284.092Z"/><path class="d" d="M188.1,199.9a199.43,199.43,0,0,1-33.855,1c-3.086-.172-3.077,4.628,0,4.8a199.433,199.433,0,0,0,33.855-1,2.473,2.473,0,0,0,2.4-2.4,2.414,2.414,0,0,0-2.4-2.4Z"/><path class="b" d="M78.934,133.307a59.746,59.746,0,0,1-8.659-8.78c-.974-1.216-3.294-2.863-2.055-4.342,1.4-1.669,3.094-3.149,4.42-4.512q1.2-1.236,2.365-2.507c.94-1.029.975-1.4,2.194-.6.948.621,12.155,7.874,12.166,7.853C86.837,125.429,82.886,129.321,78.934,133.307Z"/><path class="b" d="M101.607,134.136l1.732,2.879a188.5,188.5,0,0,0,18.618-15.544c2.614-2.519,5.572-5.2,7.6-8.235,1.352-2.029.253-2.643-1.061-4.224A70.6,70.6,0,0,1,124,102.935c-8.313,6.456-20.689,14.111-30.552,17.637Z"/><path class="d" d="M80.631,131.61a81.135,81.135,0,0,1-8.888-9.048c-.423-.478-1.053-1.044-1.354-1.456.113.154-.285-.408-.234-.4.071.008.107.359.111.34a2.411,2.411,0,0,0-.1.545c.015.01.607-.672.646-.714,1.481-1.583,3.094-3.036,4.585-4.611a17.539,17.539,0,0,0,1.872-2.042l.074-.075q.7-.672-1.508.344l-.065-.015c-.169-.047-.1.007.217.16.074.055.155.1.232.151.6.39,1.207.784,1.811,1.175Q81,117.884,83.964,119.8q1.446.934,2.894,1.866a9.832,9.832,0,0,0,1.3.824l-.861-3.284c-2.47,4.815-6.284,8.6-10.055,12.405-2.178,2.2,1.214,5.591,3.394,3.394,4.042-4.074,8.159-8.216,10.806-13.376.535-1.044.383-2.75-.861-3.284a9.221,9.221,0,0,1-1.237-.786q-1.477-.95-2.952-1.9-3.242-2.093-6.479-4.191c-.625-.405-1.242-.859-1.9-1.212a3.286,3.286,0,0,0-3.361-.065,13.394,13.394,0,0,0-2.382,2.405c-1.616,1.719-3.378,3.3-4.978,5.029a5.373,5.373,0,0,0-1.8,3.206,4.437,4.437,0,0,0,.932,2.945c.644.888,1.449,1.617,2.153,2.452.885,1.05,1.751,2.111,2.682,3.123A60.857,60.857,0,0,0,77.237,135a2.467,2.467,0,0,0,3.394,0A2.419,2.419,0,0,0,80.631,131.61Z"/><path class="d" d="M99.535,135.347l1.731,2.879a2.417,2.417,0,0,0,3.284.861A214.061,214.061,0,0,0,125.5,121.4a52,52,0,0,0,4.485-4.749c1.227-1.522,2.7-3.24,2.555-5.319-.143-2-1.885-3.412-3.058-4.881q-1.818-2.275-3.411-4.724a2.451,2.451,0,0,0-3.77-.485A135.965,135.965,0,0,1,108.1,110.78a91.939,91.939,0,0,1-15.284,7.478,2.433,2.433,0,0,0-1.435,3.525l8.159,13.564c1.59,2.645,5.742.234,4.144-2.422q-4.079-6.783-8.158-13.564l-1.434,3.525c11.42-4.125,22.048-10.852,31.611-18.254l-3.769-.486c1.009,1.55,2.1,3.042,3.232,4.506.535.693,1.071,1.387,1.635,2.057.242.287.511.557.745.852q.37.328.21.248.3.575.021-.219c-.211.2-.719,1.071-1.027,1.472-.576.753-1.217,1.462-1.863,2.155-1.284,1.377-2.654,2.671-4.014,3.973a195.429,195.429,0,0,1-18.741,15.752l3.284.861-1.732-2.878C102.089,130.281,97.937,132.691,99.535,135.347Z"/><path class="d" d="M88.576,120.44c-.779,9.848-1.189,19.63-1.223,29.509-.01,3.089,4.79,3.093,4.8,0,.034-9.879.444-19.661,1.223-29.509a2.42,2.42,0,0,0-2.4-2.4,2.448,2.448,0,0,0-2.4,2.4Z"/><path class="b" d="M162.7,260.48c-1.671-2.14-4.675-5.457-6.571-7.4-4.411-4.523-8.8-7.518-10.624-6.6a10.685,10.685,0,0,0-3.694,4.111,10.836,10.836,0,0,1-9.714,5.332,7.682,7.682,0,0,0-3.982,1.273,8.529,8.529,0,0,0-3.042,3c-.84,1.713-3.238,7.174-5.216,10.423-.857,1.407-1.824,1.472-3.713,2.194l-4.972,6.151c9.222,8.556,15.022,9.256,24.75,10.293,3.125.334,9.07-1.986,11.778-5.111,6.141-7.085,10.333-14.111,15-22.555"/><path class="d" d="M184.155,204.071a57.254,57.254,0,0,1-1.625,16.29,47.448,47.448,0,0,1-2.77,7.272,207.085,207.085,0,0,1-10.8,21.214c-.975,1.656-1.982,3.3-3.067,4.882q-.379.555-.774,1.1l-.25.341c-.082.109-.163.218-.246.326q.231-.3.074-.1a19.4,19.4,0,0,1-1.288,1.475c-2.166,2.206,1.225,5.6,3.394,3.394a40.922,40.922,0,0,0,5.437-7.551c2.155-3.543,4.127-7.2,6.02-10.889,1.825-3.559,3.572-7.16,5.213-10.808a74.7,74.7,0,0,0,3.384-8.339,57.9,57.9,0,0,0,2.095-18.608c-.091-3.082-4.892-3.095-4.8,0Z"/><path class="d" d="M152.737,212.639a27.241,27.241,0,0,1-1.14,9.375q-1.077,3.576-2.17,7.146c-1.6,5.249-3.135,10.544-5.066,15.682a2.42,2.42,0,0,0,1.676,2.952,2.451,2.451,0,0,0,2.952-1.676c1.971-5.245,3.538-10.651,5.166-16.008.741-2.436,1.506-4.867,2.217-7.311a30.915,30.915,0,0,0,1.165-10.16c-.148-3.075-4.949-3.093-4.8,0Z"/><path class="d" d="M109.478,280.661a41,41,0,0,0,12.07,8.13A44.141,44.141,0,0,0,133.4,291.38a17.867,17.867,0,0,0,5.869-.011,21.057,21.057,0,0,0,6.137-2.392c4.258-2.438,7.173-6.817,9.954-10.74a162.066,162.066,0,0,0,9.419-15.435c1.5-2.705-2.647-5.129-4.144-2.423-2.377,4.3-4.81,8.569-7.522,12.665-1.286,1.941-2.627,3.85-4.052,5.691a27.38,27.38,0,0,1-4.429,5.029,13.579,13.579,0,0,1-9.444,3.014,49.435,49.435,0,0,1-10.745-2.008c-4.415-1.507-8.171-4.374-11.567-7.5-2.269-2.09-5.672,1.3-3.394,3.394Z"/><path class="d" d="M164.4,258.783a71.556,71.556,0,0,0-10.167-10.75,19.973,19.973,0,0,0-5.918-3.74,5.31,5.31,0,0,0-5.665,1.3c-1.757,1.58-2.6,3.851-4.253,5.494a8.4,8.4,0,0,1-4.7,2.355c-1.2.175-2.389.059-3.587.326a9.552,9.552,0,0,0-3.514,1.581,11.755,11.755,0,0,0-4.131,4.773c-.995,2.13-1.98,4.266-3.058,6.356a15.212,15.212,0,0,1-1.791,3.189c.128-.14-.193.141-.176.128.272-.2-.314.129-.378.157-.244.106-1.094.372-1.551.543a2.465,2.465,0,0,0-1.676,2.952,2.419,2.419,0,0,0,2.952,1.676c2.084-.776,3.875-1.343,5.147-3.3a50.793,50.793,0,0,0,3.035-5.787c.737-1.536,1.389-3.128,2.182-4.636a6.506,6.506,0,0,1,4.593-3.079c1.051-.13,2.1-.069,3.157-.248a12.928,12.928,0,0,0,8.111-5.019c.668-.873,1.182-1.842,1.831-2.727a7.871,7.871,0,0,1,1.065-1.212c.177-.159.324-.251.515-.4.556-.448-.021.162-.109-.019l-.144.017a2.648,2.648,0,0,1,.388.011c-.1-.027-.471-.1.01.04a3.087,3.087,0,0,1,.666.243,15.7,15.7,0,0,1,2.792,1.764,63.844,63.844,0,0,1,10.982,11.4,2.414,2.414,0,0,0,3.394,0,2.46,2.46,0,0,0,0-3.394Z"/><path class="d" d="M113.489,279.6a7.027,7.027,0,0,1,.272-.791l-.242.573a9.17,9.17,0,0,1,1.168-1.958l-.375.486a13.9,13.9,0,0,1,2.444-2.422l-.486.375a13.943,13.943,0,0,1,1.887-1.23,2.42,2.42,0,0,0,.861-3.283,2.45,2.45,0,0,0-3.283-.861,16,16,0,0,0-4.039,3.115,11.509,11.509,0,0,0-2.835,4.72,2.4,2.4,0,1,0,4.628,1.276Z"/></svg>